<svg xmlns="http://www.w3.org/2000/svg" xmlns:xlink="http://www.w3.org/1999/xlink" width="533" height="514" viewBox="0 0 533 514">
  <defs>
    <clipPath id="clip-cookie">
      <rect width="533" height="514"/>
    </clipPath>
  </defs>
  <g id="cookie" clip-path="url(#clip-cookie)">
    <rect width="533" height="514" fill="#fef9f3"/>
    <g id="Group_93" data-name="Group 93" transform="translate(47 68.3)">
      <g id="Layer_2" data-name="Layer 2" transform="translate(0 0)">
        <g id="Layer_1" data-name="Layer 1" transform="translate(0)">
          <path id="Path_121" data-name="Path 121" d="M90.95,24.091a51.022,51.022,0,0,1,16.021-9.341c7.987-2.788,10.234-1.073,19.372-3.571,8.84-2.412,7.916-4.33,16.248-7.047,7.094-2.3,7.83-.932,32.519-3.022,7.689-.65,9.6-.955,13.7-.713,8.879.517,9.819,2.506,17.681,2.921,8.652.47,9.71-1.832,19.035-1.566a63.235,63.235,0,0,1,15.825,2.631c10.68,2.85,15.316,6.021,25.018,10.367,22.128,9.905,23.7,4.886,36.653,13.233a198.438,198.438,0,0,1,20.359,15.034c6.061,5.442,4.7,5.254,12.239,12.153,13.233,12.113,13.7,12.967,16.326,16.8,5.481,7.963,3.453,9.4,8.77,15.66,2.286,2.7,6.366,6.82,7.6,11.463A16.449,16.449,0,0,0,369.73,103c1.347,2.607,3.015,3.633,5.082,8.879,2.709,6.859,3.132,13.053,3.492,18.636a86.58,86.58,0,0,1,0,10.453c-.086,1.668-.29,4.463-.783,7.9-.689,4.7-1.676,6.8-2.051,10.124-.916,8.049.039,9.984-1.684,17.43-1.182,5.1-2.216,6.718-3.437,13.374-.783,4.3-.666,5.262-1.707,10.469-.509,2.553-.673,2.811-2.286,9.882-1.566,6.742-1.723,7.7-2.294,9.882a104.139,104.139,0,0,1-4.017,12.215,75.538,75.538,0,0,1-13.311,20.961c-5.834,6.546-6.656,5.191-14.682,13.429-8.449,8.684-6.906,9.537-13.108,15.144-7.83,7.094-9.835,5.254-20.28,14.016-5.481,4.573-6.46,6.358-10.962,8.7-5.066,2.647-6.476,1.754-15.167,4.174-12.1,3.359-12.317,5.9-23.217,8.214-4.7.994-6.374.893-11.6,2.349-6.82,1.918-7.337,3.046-12.168,4.385a48.022,48.022,0,0,1-20.359.783c-7.141-1.073-6.3-2.4-14.533-3.813-9.044-1.566-9.9.07-18.009-1.683-6.084-1.308-6.64-2.451-13.953-4.017-6.264-1.331-7.36-.947-12.207-1.7-9.686-1.488-16.561-5.732-25.018-10.962-5.426-3.343-8.989-5.591-12.818-9.835-4.048-4.479-3.915-6.311-7.6-11.589-1.644-2.349-3.054-4.025-19.239-18.526-9.13-8.175-11.119-9.835-13.311-13.86-2.451-4.448-2.145-6.264-4.769-11.636-3.524-7.219-7.494-10.962-10.508-14.486C42.536,209.589,39.6,193.663,38.073,185.206c-1.895-10.539.384-9.067-1.832-26.717C34.6,145.5,33.108,142.7,33.829,134.678c.548-6.123,2.083-11.064,5.152-20.93,2.96-9.506,3.437-9.169,6.327-18.01C51.282,77.376,51.932,70.673,58.2,59.523A29.418,29.418,0,0,1,62.252,54.1c4.628-5.066,8.324-7.047,16.545-16.6C84.333,31.084,85.821,28.327,90.95,24.091Z" transform="translate(-7.284 -0.107)" fill="#a67c52"/>
          <ellipse id="Ellipse_348" data-name="Ellipse 348" cx="29.34" cy="29.34" rx="29.34" ry="29.34" transform="translate(205.215 101.198)" fill="#fff"/>
          <path id="Path_122" data-name="Path 122" d="M298.842,166.934a8.365,8.365,0,0,1,1.433-4.7,14.666,14.666,0,0,0-7.83-2.216,14.815,14.815,0,1,0,14.877,15.339,8.418,8.418,0,0,1-8.48-8.425Z" transform="translate(-60.239 -34.76)" fill="#754c24"/>
          <ellipse id="Ellipse_349" data-name="Ellipse 349" cx="6.969" cy="6.969" rx="6.969" ry="6.969" transform="translate(225.08 136.559)"/>
          <ellipse id="Ellipse_350" data-name="Ellipse 350" cx="3.195" cy="3.195" rx="3.195" ry="3.195" transform="translate(226.826 134.014)" fill="#fff"/>
          <ellipse id="Ellipse_351" data-name="Ellipse 351" cx="29.34" cy="29.34" rx="29.34" ry="29.34" transform="translate(126.318 99.444)" fill="#fff"/>
          <path id="Path_123" data-name="Path 123" d="M198.9,159.31a14.143,14.143,0,0,0-6.617,1.66,8.417,8.417,0,0,1-7.556,12.043v.58a14.235,14.235,0,1,0,14.181-14.282Z" transform="translate(-40.066 -34.606)" fill="#754c24"/>
          <ellipse id="Ellipse_352" data-name="Ellipse 352" cx="6.969" cy="6.969" rx="6.969" ry="6.969" transform="translate(151.93 135.455)"/>
          <ellipse id="Ellipse_353" data-name="Ellipse 353" cx="3.195" cy="3.195" rx="3.195" ry="3.195" transform="translate(158.273 133.294)" fill="#fff"/>
          <path id="Path_124" data-name="Path 124" d="M204.336,243.368c3.179-2.85,6.084-1.175,19.02-.071.783.071,3.242.282,8.151.611a178.863,178.863,0,0,0,29.88-.744c14.408-1.5,16.835-3.39,19.677-.783,5.724,5.262,2.138,19.168,1.386,22.16a34.932,34.932,0,0,1-8.1,15.66c-6.045,6.507-12.951,8.253-17.665,9.4-10.359,2.467-18.675.313-26.858-1.9-12.137-3.3-18.487-5.019-23.4-11.448C198.784,266.264,197.86,249.17,204.336,243.368Z" transform="translate(-43.385 -52.35)" fill="#754c24"/>
          <path id="Path_125" data-name="Path 125" d="M206.63,245.442c3.023-2.482,5.787-1.026,18.1-.063.783.055,3.085.243,7.752.525a184.5,184.5,0,0,0,28.455-.658c13.711-1.308,16.021-2.968,18.722-.689,5.481,4.6,2.036,16.741,1.315,19.349a29.644,29.644,0,0,1-7.721,13.695c-5.755,5.685-12.333,7.212-16.819,8.191-9.858,2.161-17.775.282-25.566-1.652-11.55-2.874-17.595-4.369-22.269-9.991C201.329,265.464,200.452,250.539,206.63,245.442Z" transform="translate(-43.925 -52.857)" fill="#8c6239"/>
          <path id="Path_126" data-name="Path 126" d="M214.788,246.8c.548-.235.619,0,4.612.352,2.6.243,3.524.243,5.81.556a12.533,12.533,0,0,1,3.438.681c2.349,1.441,3.445,6.483.994,8.887-3.3,3.242-11.479,3.664-15.77.337C210.153,254.767,212.134,247.908,214.788,246.8Z" transform="translate(-45.945 -53.569)" fill="#fff"/>
          <path id="Path_127" data-name="Path 127" d="M239.6,248.822c.525-.274.611-.063,4.62,0,2.608,0,3.531-.063,5.841.055a12.348,12.348,0,0,1,3.477.391c2.482,1.245,3.986,6.209,1.754,8.833-3.022,3.531-11.135,4.651-15.66,1.683C235.651,257.185,237.029,250.161,239.6,248.822Z" transform="translate(-51.436 -53.998)" fill="#fff"/>
          <path id="Path_128" data-name="Path 128" d="M275.343,247.28c.493-.337.6-.133,4.589-.556,2.6-.266,3.508-.454,5.81-.587a11.787,11.787,0,0,1,3.508,0c2.6.955,4.651,5.724,2.725,8.613-2.607,3.845-10.539,5.873-15.4,3.43C272.359,256.027,272.955,248.893,275.343,247.28Z" transform="translate(-59.322 -53.42)" fill="#fff"/>
          <path id="Path_129" data-name="Path 129" d="M350.483,268.269c0-3.633-1.613-10.109,8.347-10.179,10.727-.039,15.011,6.436,15.026,10.062s-10.962,6.617-15.355,6.632S350.5,271.895,350.483,268.269Z" transform="translate(-76.01 -56.039)" fill="#42210b"/>
          <path id="Path_130" data-name="Path 130" d="M133.979,313.605c0-3.375-1.261-9.4,6.483-9.435,8.339,0,11.667,5.99,11.683,9.4s-8.511,6.131-11.9,6.131a6.163,6.163,0,0,1-6.264-6.092Z" transform="translate(-29.038 -66.037)" fill="#42210b"/>
          <path id="Path_131" data-name="Path 131" d="M379.677,135.29c0-4.134-1.386-11.518,7.1-11.55,9.13,0,12.787,7.345,12.8,11.479s-9.31,7.517-13.069,7.517S379.692,139.424,379.677,135.29Z" transform="translate(-82.347 -26.888)" fill="#42210b"/>
          <path id="Path_132" data-name="Path 132" d="M270.645,352.717c0-4.009-1.5-11.166,7.721-11.2,9.937,0,13.9,7.118,13.914,11.119s-10.124,7.3-14.212,7.314a7.337,7.337,0,0,1-7.423-7.235Z" transform="translate(-58.688 -74.141)" fill="#42210b"/>
          <path id="Path_133" data-name="Path 133" d="M356.681,340.339c0-5-1.707-13.93,8.731-13.969,11.229-.039,15.715,8.88,15.731,13.875s-11.44,9.1-16.06,9.114S356.7,345.335,356.681,340.339Z" transform="translate(-77.353 -70.854)" fill="#42210b"/>
          <path id="Path_134" data-name="Path 134" d="M183.382,361.575c0-2.889-1.081-8.042,5.552-8.065,7.141,0,10,5.121,10.007,8.01s-7.274,5.246-10.218,5.262A5.285,5.285,0,0,1,183.382,361.575Z" transform="translate(-39.759 -76.743)" fill="#42210b"/>
          <path id="Path_135" data-name="Path 135" d="M145.581,231.279c0-5-1.707-13.93,8.723-13.969,11.229-.039,15.715,8.879,15.739,13.875s-11.448,9.1-16.068,9.114S145.6,236.275,145.581,231.279Z" transform="translate(-31.549 -47.191)" fill="#42210b"/>
          <path id="Path_136" data-name="Path 136" d="M33.341,173.8c0-5-1.707-13.93,8.723-13.969,11.229-.039,15.715,8.879,15.731,13.883s-11.432,9.091-16.06,9.106S33.357,178.8,33.341,173.8Z" transform="translate(-7.196 -34.719)" fill="#42210b"/>
          <path id="Path_137" data-name="Path 137" d="M190.221,58.239c0-5-1.707-13.93,8.723-13.969,11.229-.039,15.723,8.879,15.739,13.883s-11.44,9.091-16.044,9.107S190.237,63.235,190.221,58.239Z" transform="translate(-41.235 -9.645)" fill="#42210b"/>
          <path id="Path_138" data-name="Path 138" d="M58.209,269.676c0-3.375-1.268-9.4,6.476-9.4,8.339,0,11.675,6,11.683,9.4s-8.5,6.147-11.925,6.155a6.154,6.154,0,0,1-6.233-6.155Z" transform="translate(-12.597 -56.514)" fill="#42210b"/>
          <path id="Path_139" data-name="Path 139" d="M332.729,60.735c0-3.375-1.261-9.4,6.484-9.435,8.339,0,11.667,6,11.683,9.4s-8.5,6.147-11.933,6.155a6.162,6.162,0,0,1-6.233-6.115Z" transform="translate(-72.162 -11.17)" fill="#42210b"/>
          <path id="Path_140" data-name="Path 140" d="M98.357,73.772c0-6.6-1.918-18.393,9.756-18.432,12.528-.047,17.587,11.745,17.61,18.338s-12.795,12-17.963,12.012S98.381,80.373,98.357,73.772Z" transform="translate(-21.3 -12.047)" fill="#42210b"/>
          <path id="Path_141" data-name="Path 141" d="M224.219,9.446c0-3.375-1.261-9.4,6.483-9.4,8.339,0,11.667,6,11.683,9.4s-8.5,6.147-11.933,6.155a6.162,6.162,0,0,1-6.233-6.155Z" transform="translate(-48.618 -0.05)" fill="#42210b"/>
          <path id="Path_142" data-name="Path 142" d="M269.769,78.232c0-4.957-1.864-13.813,9.561-13.852,12.293-.047,17.227,8.8,17.227,13.758s-12.528,9.02-17.595,9.036A9.067,9.067,0,0,1,269.769,78.232Z" transform="translate(-58.493 -14.008)" fill="#42210b"/>
          <path id="Path_143" data-name="Path 143" d="M88.422,193.625c0-2.889-1.081-8.042,5.552-8.065,7.141,0,10,5.121,10.007,8.01S96.7,198.817,93.8,198.832a5.285,5.285,0,0,1-5.379-5.207Z" transform="translate(-19.155 -40.302)" fill="#42210b"/>
          <path id="Path_144" data-name="Path 144" d="M437.015,298.439c-2.067-2.012-6.507-4.847-1.887-9.608,4.972-5.129,10.649-3.571,12.716-1.566s-1.323,8.872-3.367,10.962A5.285,5.285,0,0,1,437.015,298.439Z" transform="translate(-93.957 -61.959)" fill="#42210b"/>
          <path id="Path_145" data-name="Path 145" d="M434.316,123.2c0-4.134-1.394-11.518,7.094-11.55,9.13,0,12.787,7.345,12.8,11.479s-9.31,7.525-13.069,7.533S434.324,127.334,434.316,123.2Z" transform="translate(-94.202 -24.265)" fill="#42210b"/>
          <path id="Path_146" data-name="Path 146" d="M392.959,208.42c0-6.9-2.42-19.215,12.372-19.27,15.927-.055,22.293,12.254,22.316,19.145s-16.224,12.528-22.778,12.568S392.959,215.319,392.959,208.42Z" transform="translate(-85.215 -41.08)" fill="#42210b"/>
          <path id="Path_147" data-name="Path 147" d="M437.76,195.508c2.584-.3,24.634-3.038,40.756-14.509a86.431,86.431,0,0,0,17.226-16.733c.063-.086,1.292-1.754,2.4-3.445,6.366-9.733,9.545-21.745,11.143-31.65l19.7-.07a75.215,75.215,0,0,1-4.127,30.185c-10.25,28.572-35.51,41.383-44.867,46.128a103.515,103.515,0,0,1-40.772,10.923Z" transform="translate(-94.968 -28.051)" fill="#a67c52"/>
          <path id="Path_148" data-name="Path 148" d="M525.58,120.177c-1.637-1.762-16.866-18.378-12.387-26.772.219-.415,1.566-2.842,3.829-3.132,3.32-.47,7.345,3.806,10.031,11.009-.7-6.938-1.566-20.319,2.208-27.609.619-1.206,2.1-4.08,3.829-3.915,1.613.11,2.639,2.78,3.085,3.915,2.827,7.337,1.143,20.907.094,27.6,1.566-14.588,4.823-25.307,8.355-28.424a8.653,8.653,0,0,1,5.372-2.349c.352,0,2.678,0,3.845,1.566,1.644,2.145,0,5.99-.783,7.893-2.059,5.066-4.5,11.745-7.6,21.322.642-1.409,10.179-21.925,16.811-25.3.987-.5,3.21-1.636,5.379-.783a6.311,6.311,0,0,1,3.077,3.132c2.772,5.818-15.191,23.036-17.579,25.3,2.662-2.654,4.7-4.816,6.123-6.327a15.057,15.057,0,0,1,1.566-1.566,15.966,15.966,0,0,1,6.9-3.97,9.8,9.8,0,0,1,6.147,0,5.009,5.009,0,0,1,3.085,2.349c.783,1.77-.3,3.852-.783,4.7-3.132,6.053-26.513,24.133-29.1,26.129Z" transform="translate(-111.157 -15.174)" fill="#fff"/>
          <path id="Path_149" data-name="Path 149" d="M71.2,224.539c-17.446-3.4-35.119,3-45.329,16.444-12.724,16.725-9.631,38.807.188,52.689,14.494,20.5,41.163,19.576,48.085,19.341a65.971,65.971,0,0,0,24.971-5.959l9.913,12.975a74.739,74.739,0,0,1-36.8,11.839c-5.426.235-36.528.979-56.652-23.217-14.6-17.54-22.911-47.569-6.836-72.171,13.029-19.959,38.063-30.154,63.057-25.589Z" transform="translate(0.02 -45.564)" fill="#a67c52"/>
          <path id="Path_150" data-name="Path 150" d="M205.307,394.34q-.853,21.541-1.707,43.066l.055,17.227,13.022-.047,1.652-58.727Z" transform="translate(-44.161 -85.602)" fill="#a67c52"/>
          <path id="Path_151" data-name="Path 151" d="M287.4,393l2.036,43.066,1.5,17.156,11.91-1.034-3.406-58.656Z" transform="translate(-62.343 -85.311)" fill="#a67c52"/>
          <path id="Path_152" data-name="Path 152" d="M211.192,494.8l-27.836.783c-10.477.736-18.973-3.328-21.322-9.662-2.067-5.567,1.222-11.221,2.044-12.529,8.746-13.953,39.691-18.182,48.68-4.346C218.873,478.482,212.28,492.506,211.192,494.8Z" transform="translate(-34.996 -99.969)" stroke="#000" stroke-miterlimit="10" stroke-width="1"/>
          <path id="Path_153" data-name="Path 153" d="M278.108,494.671l27.805.6c10.469.658,18.926-3.461,21.228-9.819,2.028-5.575-1.3-11.213-2.13-12.528-8.817-13.891-39.8-17.9-48.665-4C270.294,478.408,276.981,492.385,278.108,494.671Z" transform="translate(-59.402 -99.91)" stroke="#000" stroke-miterlimit="10" stroke-width="1"/>
          <line id="Line_102" data-name="Line 102" y1="11.456" x2="5.293" transform="translate(251.225 365.577)" fill="none" stroke="#fff" stroke-linecap="round" stroke-miterlimit="10" stroke-width="3"/>
          <line id="Line_103" data-name="Line 103" y1="12.207" x2="3.218" transform="translate(244.35 362.109)" fill="none" stroke="#fff" stroke-linecap="round" stroke-miterlimit="10" stroke-width="3"/>
          <line id="Line_104" data-name="Line 104" x1="7.478" y1="12.834" transform="translate(141.821 364.34)" fill="none" stroke="#fff" stroke-linecap="round" stroke-miterlimit="10" stroke-width="3"/>
          <line id="Line_105" data-name="Line 105" x2="2.897" y2="13.131" transform="translate(150.239 361.811)" fill="none" stroke="#fff" stroke-linecap="round" stroke-miterlimit="10" stroke-width="3"/>
        </g>
      </g>
    </g>
  </g>
</svg>
